<svg width="0" height="0" class="hidden">
  <symbol viewBox="0 0 24 24" xmlns="http://www.w3.org/2000/svg" id="delete">
    <path fill-rule="evenodd" clip-rule="evenodd" d="M17 8a1 1 0 0 1 1 1v10a3 3 0 0 1-3 3H9a3 3 0 0 1-3-3V9a1 1 0 0 1 1-1h10zm-1 2H8v9a1 1 0 0 0 1 1h6a1 1 0 0 0 1-1v-9zM9 3a1 1 0 0 1 1-1h4a1 1 0 0 1 1 1v1h4a1 1 0 1 1 0 2H5a1 1 0 0 1 0-2h4V3z"></path>
  </symbol>
  <symbol viewBox="0 0 24 24" xmlns="http://www.w3.org/2000/svg" id="plus">
    <path fill-rule="evenodd" clip-rule="evenodd" d="M12 4a1 1 0 0 1 1 1v6h6a1 1 0 1 1 0 2h-6v6a1 1 0 1 1-2 0v-6H5a1 1 0 1 1 0-2h6V5a1 1 0 0 1 1-1z"></path>
  </symbol>
  <symbol viewBox="0 0 24 24" xmlns="http://www.w3.org/2000/svg" id="slider">
    <path fill-rule="evenodd" clip-rule="evenodd" d="M12 16c1.306 0 2.418.835 2.83 2H21a1 1 0 1 1 0 2h-6.171a3.001 3.001 0 0 1-5.658 0H3a1 1 0 1 1 0-2h6.17A3.001 3.001 0 0 1 12 16zm0 2a1 1 0 1 0 0 2 1 1 0 0 0 0-2zm7-9a3 3 0 1 1-2.829 4H3a1 1 0 1 1 0-2h13.17A3.001 3.001 0 0 1 19 9zm0 2a1 1 0 1 0 0 2 1 1 0 0 0 0-2zM5 2c1.312 0 2.427.842 2.835 2.015A.878.878 0 0 1 8 4h13a1 1 0 1 1 0 2H8c-.057 0-.112-.005-.166-.014A3 3 0 1 1 5 2zm0 2a1 1 0 1 0 0 2 1 1 0 0 0 0-2z"></path>
  </symbol>
  <symbol viewBox="0 0 24 24" xmlns="http://www.w3.org/2000/svg" id="success">
    <path fill-rule="evenodd" clip-rule="evenodd" d="M12 2c5.523 0 10 4.477 10 10s-4.477 10-10 10S2 17.523 2 12 6.477 2 12 2zm0 2a8 8 0 1 0 0 16 8 8 0 0 0 0-16zm3.293 4.293L10 13.586l-1.293-1.293a1 1 0 0 0-1.414 1.414l2 2a1 1 0 0 0 1.414 0l6-6a1 1 0 0 0-1.414-1.414z"></path>
  </symbol>
  <symbol viewBox="0 0 24 24" xmlns="http://www.w3.org/2000/svg" id="close">
    <path fill-rule="evenodd" clip-rule="evenodd" d="M13.414 12l5.293-5.293a.999.999 0 1 0-1.414-1.414L12 10.586 6.707 5.293a.999.999 0 1 0-1.414 1.414L10.586 12l-5.293 5.293a.999.999 0 1 0 1.414 1.414L12 13.414l5.293 5.293a.997.997 0 0 0 1.414 0 .999.999 0 0 0 0-1.414L13.414 12z"></path>
  </symbol>
  <symbol viewBox="0 0 24 24" xmlns="http://www.w3.org/2000/svg" id="dashboard">
    <path fill-rule="evenodd" clip-rule="evenodd" d="M10 14a1 1 0 0 1 1 1v6a1 1 0 0 1-1 1H3a1 1 0 0 1-1-1v-6a1 1 0 0 1 1-1h7zm11-5a1 1 0 0 1 1 1v11a1 1 0 0 1-1 1h-7a1 1 0 0 1-1-1V10a1 1 0 0 1 1-1h7zM10 2a1 1 0 0 1 1 1v8a1 1 0 0 1-1 1H3a1 1 0 0 1-1-1V3a1 1 0 0 1 1-1h7zm11 0a1 1 0 0 1 1 1v3a1 1 0 0 1-1 1h-7a1 1 0 0 1-1-1V3a1 1 0 0 1 1-1h7z"></path>
  </symbol>
</svg>